Coordinates
version=1
nRows=4
nColumns=114
inDegrees=yes

Units are S.I. units (second, meters, Newtons, ...)
If the header above contains a line with 'inDegrees', this indicates whether rotational values are in degrees (yes) or radians (no).

endheader 
time	pelvis_tilt	pelvis_list	pelvis_rotation	pelvis_tx	pelvis_ty	pelvis_tz	hip_flexion_l	hip_adduction_l	hip_rotation_l	hip_flexion_r	hip_adduction_r	hip_rotation_r	knee_angle_l	knee_angle_r	ankle_angle_l	ankle_angle_r	subtalar_angle_l	subtalar_angle_r	mtp_angle_l	mtp_angle_r	lumbar_extension	lumbar_bending	lumbar_rotation	arm_flex_l	arm_add_l	arm_rot_l	arm_flex_r	arm_add_r	arm_rot_r	elbow_flex_l	elbow_flex_r	pro_sup_l	pro_sup_r	addbrev_l/activation	addlong_l/activation	addmagDist_l/activation	addmagIsch_l/activation	addmagMid_l/activation	addmagProx_l/activation	bflh_l/activation	bfsh_l/activation	edl_l/activation	ehl_l/activation	fdl_l/activation	fhl_l/activation	gaslat_l/activation	gasmed_l/activation	glmax1_l/activation	glmax2_l/activation	glmax3_l/activation	glmed1_l/activation	glmed2_l/activation	glmed3_l/activation	glmin1_l/activation	glmin2_l/activation	glmin3_l/activation	grac_l/activation	iliacus_l/activation	perbrev_l/activation	perlong_l/activation	piri_l/activation	psoas_l/activation	recfem_l/activation	sart_l/activation	semimem_l/activation	semiten_l/activation	soleus_l/activation	tfl_l/activation	tibant_l/activation	tibpost_l/activation	vasint_l/activation	vaslat_l/activation	vasmed_l/activation	addbrev_r/activation	addlong_r/activation	addmagDist_r/activation	addmagIsch_r/activation	addmagMid_r/activation	addmagProx_r/activation	bflh_r/activation	bfsh_r/activation	edl_r/activation	ehl_r/activation	fdl_r/activation	fhl_r/activation	gaslat_r/activation	gasmed_r/activation	glmax1_r/activation	glmax2_r/activation	glmax3_r/activation	glmed1_r/activation	glmed2_r/activation	glmed3_r/activation	glmin1_r/activation	glmin2_r/activation	glmin3_r/activation	grac_r/activation	iliacus_r/activation	perbrev_r/activation	perlong_r/activation	piri_r/activation	psoas_r/activation	recfem_r/activation	sart_r/activation	semimem_r/activation	semiten_r/activation	soleus_r/activation	tfl_r/activation	tibant_r/activation	tibpost_r/activation	vasint_r/activation	vaslat_r/activation	vasmed_r/activation	
          4.20000000	         -2.51596357	          8.34211886	          0.27363453	         -5.39799969	          0.83707409	          0.39133186	         20.08081361	          7.97324909	         13.99980948	         22.74181360	         -5.90713932	         -3.72990574	         48.34252300	         85.77173488	          3.55269716	         22.33209378	        -34.71351414	        -23.95070741	        -44.97888291	        -35.96941290	         -7.79579385	        -19.52209481	        -20.87672230	       -320.22317847	        -38.60379649	         26.45491416	       -336.32473083	        -34.02445159	        -31.20273159	         41.73301056	        132.89295081	         91.40981669	         83.64001968	          0.04396632	          0.14290257	          0.02259078	          0.02371331	          0.02384401	          0.02396066	          0.01066182	          0.01507699	          0.15440222	          0.03183265	          0.01290974	          0.01136722	          0.01051812	          0.01028666	          0.01010027	          0.01006999	          0.01043829	          0.01014814	          0.01014333	          0.01011859	          0.01090744	          0.01044282	          0.01033117	          0.02159850	          0.15216622	          0.02174376	          0.05601468	          0.01014899	          0.09827282	          0.04253395	          0.01364585	          0.01131035	          0.01574996	          0.01010821	          0.20046839	          0.12881078	          0.01070480	          0.01053840	          0.01018847	          0.01039828	          0.05550870	          0.07657267	          0.01012134	          0.01007026	          0.01181622	          0.03422908	          0.01004910	          0.09266763	          0.01452475	          0.01366868	          0.01363136	          0.01175584	          0.01725705	          0.01720856	          0.01003020	          0.01001694	          0.01002241	          0.03150573	          0.01007231	          0.01003564	          0.05457300	          0.03961156	          0.01018145	          0.05634835	          0.07551321	          0.03920751	          0.06460094	          0.01006415	          0.08698703	          0.33917230	          0.11428223	          0.01017976	          0.01032675	          0.01025178	          0.16972896	          0.15960153	          0.01102580	          0.01003998	          0.01001454	          0.01002790	
          4.21000000	         -2.71023129	          7.91611771	          0.42659691	         -5.36983763	          0.85056474	          0.38958316	         18.84924567	          7.89746741	         13.99202278	         27.62563068	         -5.57836661	         -3.18818749	         49.57573045	         86.96955820	          4.88922990	         23.46688970	        -34.81813037	        -24.00834601	        -39.65283808	        -31.70224703	         -7.74931008	        -18.46329111	        -22.95296076	       -313.03656016	        -38.97492633	         26.84255022	       -328.42228434	        -39.24283093	        -48.89012638	         39.19262513	        133.73594143	         91.02954309	         83.15739041	          0.03670703	          0.11912219	          0.01907142	          0.02013574	          0.02002996	          0.02012721	          0.01310259	          0.01418965	          0.15665823	          0.04292120	          0.01480432	          0.01173470	          0.01021299	          0.01010439	          0.01074937	          0.01056984	          0.01237349	          0.01234456	          0.01192760	          0.01111996	          0.02340500	          0.01438080	          0.01302931	          0.01824152	          0.12692722	          0.05915757	          0.04750767	          0.01162235	          0.08198812	          0.04692062	          0.01283134	          0.01514780	          0.01503557	          0.01007710	          0.23837823	          0.18377653	          0.01127935	          0.01906572	          0.01795649	          0.01861602	          0.04634519	          0.06386619	          0.01018352	          0.01013353	          0.01037905	          0.02872510	          0.01010910	          0.07732979	          0.08069830	          0.08553817	          0.01517304	          0.01202187	          0.01440400	          0.01435164	          0.01019407	          0.01009614	          0.01008075	          0.02643001	          0.01175323	          0.01047074	          0.04568389	          0.03479587	          0.04058430	          0.04704879	          0.06300108	          0.05236687	          0.05410287	          0.10030699	          0.07254282	          0.28266140	          0.09534407	          0.01013333	          0.01024434	          0.01014935	          0.14148326	          0.17586912	          0.01154317	          0.01027685	          0.01009985	          0.01018974	
          4.22000000	         -2.42083858	          7.16934794	         -0.02853992	         -5.33968285	          0.86508378	          0.38926454	         16.51470284	          7.17155306	         13.79064465	         31.54370813	         -4.63566503	         -2.42688197	         49.78538552	         86.70437123	          7.40253671	         24.64046065	        -33.36508178	        -23.39503926	        -34.96717046	        -27.94010872	         -7.87130231	        -17.03809166	        -24.12354616	       -309.12223363	        -38.10182760	         26.68513122	       -324.04435508	        -41.83515540	        -56.99316583	         38.44891826	        134.44758167	         90.75917749	         82.31537702	          0.03063262	          0.09930763	          0.01603827	          0.01697555	          0.01679107	          0.01687731	          0.01248221	          0.01315788	          0.15641552	          0.09610072	          0.01485912	          0.01092217	          0.01005769	          0.01002816	          0.01122684	          0.01102148	          0.01179869	          0.27669625	          0.04033147	          0.01338686	          0.06748082	          0.02608357	          0.01663184	          0.01538810	          0.10597290	          0.06276584	          0.04059928	          0.01311708	          0.06842918	          0.04742091	          0.01181391	          0.01431901	          0.01362359	          0.01002192	          0.30762248	          0.25192803	          0.01105556	          0.01609386	          0.01503763	          0.01567012	          0.03870982	          0.05327397	          0.01038254	          0.01028355	          0.01068087	          0.02422153	          0.01031826	          0.06452861	          0.07528824	          0.07298238	          0.01522788	          0.01138761	          0.01202726	          0.01197428	          0.01108767	          0.01045383	          0.01022094	          0.02212226	          0.01335079	          0.02660522	          0.03822141	          0.02935468	          0.03471516	          0.03931372	          0.05254618	          0.05451679	          0.04807769	          0.12691188	          0.06048626	          0.23556931	          0.07951591	          0.01027981	          0.01059350	          0.01007740	          0.11794965	          0.16350282	          0.01130527	          0.01078807	          0.01025599	          0.01051425	
          4.23000000	         -1.79657871	          6.12882650	         -0.85757388	         -5.30819070	          0.87998560	          0.38985132	         13.43697595	          5.94013676	         13.50193956	         34.64303325	         -3.18178644	         -1.73329433	         49.20429385	         85.38382866	         10.34011972	         25.70685168	        -30.94713594	        -22.47736755	        -30.84872649	        -24.63053224	         -8.04153401	        -15.31838267	        -25.06343609	       -308.18297113	        -37.21624563	         25.21286188	       -322.97395152	        -43.11627005	        -58.19758252	         39.09844356	        135.27395955	         90.15435605	         81.39026809	          0.02556722	          0.08280427	          0.01346956	          0.01426057	          0.01407660	          0.01417236	          0.01117488	          0.02002588	          0.13444486	          0.08055156	          0.01530607	          0.01085857	          0.01005650	          0.01002758	          0.01094244	          0.01055355	          0.01051222	          0.27107704	          0.07405656	          0.01701684	          0.14137645	          0.08011053	          0.02677687	          0.01311847	          0.13474136	          0.05929152	          0.03416134	          0.01792768	          0.05740964	          0.05579415	          0.02006944	          0.01254646	          0.01213127	          0.01001986	          0.38314115	          0.21053016	          0.01126772	          0.01347695	          0.01255461	          0.01310778	          0.03236427	          0.04445044	          0.01240793	          0.01163378	          0.01296539	          0.02068246	          0.03633063	          0.05385494	          0.06420562	          0.06157848	          0.01543413	          0.01101221	          0.01007326	          0.01002607	          0.05424008	          0.09225933	          0.02520196	          0.01856345	          0.01286216	          0.03364763	          0.03204192	          0.02482227	          0.02954756	          0.03289001	          0.04382717	          0.04996739	          0.04035864	          0.10696586	          0.05043374	          0.19632632	          0.06631436	          0.01208078	          0.01343773	          0.01004485	          0.09834228	          0.13636088	          0.01119320	          0.01749101	          0.01667753	          0.01678848	
